<?xml version="1.0" encoding="UTF-8" standalone="no"?>
<!-- Created with Inkscape (http://www.inkscape.org/) -->

<svg
   width="210mm"
   height="210mm"
   viewBox="0 0 210 210"
   version="1.1"
   id="svg1"
   xml:space="preserve"
   xmlns="http://www.w3.org/2000/svg"
   xmlns:svg="http://www.w3.org/2000/svg"><defs
     id="defs1"><linearGradient
       id="swatch3"><stop
         style="stop-color:#000000;stop-opacity:1;"
         offset="0"
         id="stop3" /></linearGradient><linearGradient
       id="swatch2"><stop
         style="stop-color:#000000;stop-opacity:1;"
         offset="0"
         id="stop2" /></linearGradient></defs><g
     id="layer1"
     style="display:inline"
     transform="translate(0,-41.157406)"><path
       id="path1"
       style="display:inline;fill:#0022ff;stroke:#0022ff;stroke-width:6.15047;stroke-linecap:round"
       d="M 184.33457,146.06012 A 79.342613,79.494606 0 0 1 104.99196,225.55473 79.342613,79.494606 0 0 1 25.649345,146.06012 79.342613,79.494606 0 0 1 104.99196,66.565514 79.342613,79.494606 0 0 1 184.33457,146.06012 Z" /><path
       d="m -7.1902254,216.94363 q -3.7069926,0 -7.6143646,-1.90359 -3.907371,-1.90359 -7.313797,-5.41021 h -0.500945 l -1.202268,5.91116 h -11.521735 v -79.95083 h 14.727783 v 20.13799 l -0.500945,9.01701 q 3.406426,-3.00567 7.413986,-4.80907 4.1077496,-1.90359 8.2154987,-1.90359 6.9130412,0 11.8223023,3.6068 5.00945,3.50662 7.614364,9.91871 2.705103,6.31191 2.705103,14.92816 0,9.61815 -3.406426,16.53119 -3.4064259,6.81285 -8.916821,10.41966 -5.4102062,3.50661 -11.5217354,3.50661 z m -3.2060476,-12.12287 q 3.3062366,0 6.0113397,-1.90359 2.7051031,-2.00378 4.30812714,-6.01134 1.60302406,-4.00756 1.60302406,-10.11909 0,-5.31002 -1.20226805,-9.01701 -1.20226803,-3.80718 -3.60680415,-5.71077 -2.404536,-1.90359 -6.3119071,-1.90359 -2.8052926,0 -5.5103956,1.40264 -2.604914,1.40265 -5.510395,4.30813 v 24.74668 q 2.604914,2.40454 5.209828,3.30624 2.705103,0.9017 5.009451,0.9017 z m 61.215392,12.12287 q -7.113419,0 -12.724004,-2.50472 -5.610584,-2.50473 -8.916821,-7.01323 -3.206048,-4.50851 -3.206048,-10.31947 0,-4.50851 1.803402,-7.91493 1.803402,-3.40643 4.608694,-6.01134 2.905481,-2.60492 6.311907,-4.40832 v -0.40076 q -4.207938,-3.00567 -7.01323,-7.11341 -2.805292,-4.10775 -2.805292,-9.71834 0,-6.11153 2.905481,-10.41965 2.905481,-4.40832 7.914931,-6.81286 5.10964,-2.40453 11.521736,-2.40453 6.612474,0 11.421546,2.50472 4.809072,2.40454 7.413986,6.81286 2.705103,4.40831 2.705103,10.31946 0,3.50662 -1.402646,6.61248 -1.302457,3.10586 -3.506615,5.51039 -2.204158,2.40454 -4.608694,4.10775 v 0.50095 q 3.406426,1.90359 6.211718,4.40831 2.905481,2.50473 4.608694,6.01134 1.703214,3.50662 1.703214,8.41588 0,5.61058 -3.206049,10.11909 -3.105859,4.5085 -8.716443,7.11342 -5.610584,2.60491 -13.02457,2.60491 z m 4.608694,-42.68051 q 2.604914,-2.8053 3.907371,-5.71078 1.402646,-2.90548 1.402646,-6.11153 0,-2.90548 -1.202268,-5.20982 -1.102079,-2.40454 -3.306237,-3.60681 -2.204158,-1.30246 -5.310017,-1.30246 -3.807182,0 -6.412096,2.40454 -2.604914,2.30435 -2.604914,6.81285 0,3.30624 1.803402,5.5104 1.803402,2.20416 4.809072,3.90737 3.105859,1.70321 6.913041,3.30624 z m -4.308127,32.26085 q 3.206048,0 5.610584,-1.10207 2.504725,-1.20227 3.907371,-3.40643 1.402646,-2.30435 1.402646,-5.41021 0,-2.80529 -1.302457,-4.70888 -1.202268,-1.90359 -3.406426,-3.40643 -2.204158,-1.50283 -5.209828,-2.80529 -3.00567,-1.40264 -6.612474,-2.80529 -3.00567,2.30435 -4.909262,5.5104 -1.903591,3.20604 -1.903591,7.11341 0,3.30624 1.603024,5.81097 1.703214,2.40453 4.508506,3.80718 2.805292,1.40264 6.311907,1.40264 z"
       id="text4"
       style="font-size:100.189px;font-family:'Noto Sans JP';-inkscape-font-specification:'Noto Sans JP, @wght=700';font-variation-settings:'wght' 700;stroke:#000000;stroke-linecap:round"
       transform="matrix(0.86843276,-0.50912716,0.50240204,0.85696154,0,0)"
       aria-label="b8" /></g></svg>
